# xmcd
#
# Track frame offsets:
#   150
#   9063
#   20929
#   32916
#   42073
#   51559
#   63138
#   74504
#   86457
#   98739
#   110993
#
# Disc length: 1655 seconds
#
# Revision: 0
# Processed by: cddbd v1.4PL0 Copyright (c) Steve Scherf et al.
# Submitted via: uFREEDB 1.6.0
#
DISCID=9106750b
DTITLE=Martin, Dean - Dean Martin Hits Again
DYEAR=1965
DGENRE=Country
TTITLE0=You're Nobody 'Til Somebody Loves You
TTITLE1=I'll Hold You In My Heart
TTITLE2=Have A Heart
TTITLE3=My Heart Is An Open Book
TTITLE4=You'll Always Be The One I Love
TTITLE5=In The Chapel In The Moonlight
TTITLE6=Send Me The Pillow You Dream On
TTITLE7=Send Me Some Lovin'
TTITLE8=Wedding Bells
TTITLE9=I'll Be Seeing You
TTITLE10=Sophia (Bonus)
EXTD=
EXTT0=
EXTT1=
EXTT2=
EXTT3=
EXTT4=
EXTT5=
EXTT6=
EXTT7=
EXTT8=
EXTT9=
EXTT10=
PLAYORDER=
